<svg xmlns="http://www.w3.org/2000/svg" viewBox="0 0 100 125" x="0px" y="0px"><title>Creator Icon_14</title><g data-name="Layer 2"><path d="M69.79,15.46a15.52,15.52,0,0,0-15.42,14L28.93,54.89A10.68,10.68,0,0,0,27,67.38a8.86,8.86,0,0,0-4.3,8.56c.25,2.11-.2,3.78-1.3,4.83s-3,1.51-5.24,1.13a1.25,1.25,0,1,0-.42,2.46,11.73,11.73,0,0,0,2,.18,7.66,7.66,0,0,0,5.4-2c1.18-1.12,2.5-3.23,2.07-6.93a6.34,6.34,0,0,1,3.24-6.21c.16.18.32.37.49.54A10.69,10.69,0,0,0,44,70L67.72,46.31a15.49,15.49,0,1,0,2.08-30.84ZM42.27,68.22A8.18,8.18,0,1,1,30.7,56.65L54.43,32.93A15.52,15.52,0,0,0,64.85,45.64ZM69.79,44a13,13,0,1,1,13-13A13,13,0,0,1,69.79,44Z"/><path d="M53.52,41.34a1.21,1.21,0,0,0-.93-.37,1.25,1.25,0,0,0-.9.43L46,48a3.57,3.57,0,0,0,.18,4.84h0A3.57,3.57,0,0,0,51,53l6.61-5.7a1.25,1.25,0,0,0,.07-1.83Zm-4.15,9.8a1.06,1.06,0,0,1-1.44-.05h0a1.06,1.06,0,0,1-.05-1.44l4.82-5.59L55,46.32Z"/></g><text x="0" y="115" fill="#000000" font-size="5px" font-weight="bold" font-family="'Helvetica Neue', Helvetica, Arial-Unicode, Arial, Sans-serif">Created by sasicreatives</text><text x="0" y="120" fill="#000000" font-size="5px" font-weight="bold" font-family="'Helvetica Neue', Helvetica, Arial-Unicode, Arial, Sans-serif">from the Noun Project</text></svg>