<?xml version="1.0" encoding="utf-8"?>
<!-- Generator: Adobe Illustrator 16.0.0, SVG Export Plug-In . SVG Version: 6.00 Build 0)  -->
<!DOCTYPE svg PUBLIC "-//W3C//DTD SVG 1.1//EN" "http://www.w3.org/Graphics/SVG/1.1/DTD/svg11.dtd">
<svg version="1.1" id="Layer_2" xmlns="http://www.w3.org/2000/svg" xmlns:xlink="http://www.w3.org/1999/xlink" x="0px" y="0px"
	 width="320px" height="320px" viewBox="0 0 320 320" enable-background="new 0 0 320 320" xml:space="preserve">
<g>
	<path d="M230.537,149.033c2.462,0,4.606-1.818,4.948-4.325c0.346-2.539-1.288-4.869-3.709-5.493
		c3.974-6.99,6.255-15.067,6.255-23.683c0-26.51-21.49-48-48-48c-11.361,0-21.793,3.956-30.014,10.553
		c-0.164-0.419-0.253-0.666-0.266-0.702c-0.909-2.605-3.76-3.98-6.366-3.073c-2.607,0.908-3.985,3.759-3.077,6.367
		c0.092,0.263,0.76,2.138,2.089,5.078c-6.485,8.184-10.367,18.524-10.367,29.777c0,1.555,0.081,3.091,0.225,4.608l-18.27,26.948
		l-58.397,74.869c-1.523,1.953-1.387,4.727,0.32,6.521l6.117,6.43l-9.936,13.007c-4.414,5.992-9.196,20.707,4.291,33.505
		c5.9,5.599,12.24,7.549,18.04,7.549c7.401,0,13.923-3.177,17.528-6c0.175-0.138,0.34-0.286,0.495-0.444l36.781-37.695
		c0.03-0.031,0.085-0.091,0.115-0.122c1.552-1.676,9.837-9.557,20.582-0.232c3.53,3.065,5.37,6.239,5.467,9.436
		c0.154,5.061-3.956,9.152-3.973,9.17c-0.092,0.087-0.18,0.177-0.264,0.271l-15.333,17c-1.85,2.051-1.687,5.212,0.364,7.062
		c2.051,1.849,5.211,1.688,7.062-0.364l15.228-16.883c1.24-1.23,7.121-7.548,6.915-16.422c-0.143-6.152-3.141-11.812-8.911-16.819
		c-14.852-12.893-28.994-5.034-34.474,0.988L95.551,275.27c-1.738,1.264-12.38,8.299-22.287-1.104
		c-10.09-9.574-3.988-19.086-3.125-20.316l8.865-11.604l6.405,6.733c0.981,1.032,2.301,1.554,3.624,1.554
		c1.208,0,2.418-0.435,3.376-1.313l71.314-65.329l27.332-20.384c13.554-0.284,25.725-6.176,34.28-15.461
		c2.676,0.677,4.281,0.909,4.521,0.942C230.085,149.018,230.312,149.033,230.537,149.033z M190.031,77.532c20.953,0,38,17.047,38,38
		c0,7.744-2.333,14.95-6.327,20.963c-8.271-2.898-21.072-8.851-34.913-20.754c-10.931-9.401-18.147-20.448-22.355-28.269
		C171.193,81.302,180.18,77.532,190.031,77.532z M89.272,238.531l-13.147-13.822l52.773-67.658l23.175,23.948L89.272,238.531z
		 M159.651,174.451l-24.776-25.604l10.558-15.572c5.456,13.701,17.033,24.289,31.359,28.393L159.651,174.451z M190.031,153.532
		c-20.953,0-38-17.047-38-38c0-7.233,2.033-14,5.556-19.762c4.787,8.203,12.142,18.486,22.685,27.553
		c13.004,11.183,25.237,17.575,34.306,21.185C207.95,150.13,199.383,153.532,190.031,153.532z"/>
	<path d="M240.531,72.532c1.256,0,2.513-0.47,3.484-1.414l17.5-17c1.98-1.924,2.026-5.09,0.102-7.07
		c-1.923-1.981-5.09-2.026-7.07-0.103l-17.5,17c-1.98,1.924-2.026,5.09-0.102,7.07C237.925,72.025,239.228,72.532,240.531,72.532z"
		/>
	<path d="M203.528,57.532c0.052,0,0.103-0.001,0.154-0.002c2.76-0.083,4.93-2.389,4.847-5.149l-0.5-16.5
		c-0.083-2.761-2.42-4.94-5.149-4.846c-2.76,0.083-4.93,2.389-4.847,5.149l0.5,16.5C198.615,55.392,200.837,57.532,203.528,57.532z"
		/>
	<path d="M275.246,98.541l-17.5,1c-2.757,0.157-4.864,2.52-4.707,5.277c0.152,2.66,2.356,4.715,4.987,4.715
		c0.097,0,0.193-0.002,0.29-0.008l17.5-1c2.757-0.157,4.864-2.52,4.707-5.277C280.365,100.489,277.972,98.38,275.246,98.541z"/>
	<path d="M72.463,127.03c6.616,0,12-5.384,12-12V77.802l24-9v22.965c-1.256-0.448-2.592-0.736-4-0.736c-6.616,0-12,5.384-12,12
		s5.384,12,12,12s12-5.384,12-12v-40c0-1.312-0.645-2.54-1.721-3.288c-1.079-0.744-2.455-0.916-3.684-0.456l-32,12
		c-1.56,0.584-2.596,2.076-2.596,3.744v28.736c-1.256-0.448-2.592-0.736-4-0.736c-6.616,0-12,5.384-12,12
		S65.847,127.03,72.463,127.03z M104.463,107.03c-2.204,0-4-1.792-4-4s1.796-4,4-4s4,1.792,4,4S106.667,107.03,104.463,107.03z
		 M72.463,111.03c2.204,0,4,1.792,4,4s-1.796,4-4,4s-4-1.792-4-4S70.259,111.03,72.463,111.03z"/>
	<path d="M272.323,173.952l-16-8c-1.24-0.615-2.716-0.552-3.896,0.176c-1.176,0.732-1.896,2.016-1.896,3.404v17.204
		c-1.824-0.748-3.844-1.204-6-1.204c-7.721,0-14,5.384-14,12s6.279,12,14,12s14-5.384,14-12v-21.527l10.212,5.104
		c0,0,3.601,1.611,5.351-1.889C275.794,175.818,272.323,173.952,272.323,173.952z M244.531,201.532c-3.195,0-6-1.872-6-4
		s2.805-4,6-4s6,1.872,6,4S247.727,201.532,244.531,201.532z"/>
</g>
</svg>
